HIERARCHY
ROOT Pelvis
{
	OFFSET 0.000000 0.000000 0.000000
	CHANNELS 6 Xposition Yposition Zposition Xrotation Yrotation Zrotation
	JOINT LeftUpLeg_virtual
	{
		OFFSET 0.000000 0.000000 0.000000
		CHANNELS 3 Xrotation Yrotation Zrotation
		JOINT LeftUpLeg
		{
			OFFSET 18.735201 -5.666702 -4.541200
			CHANNELS 3 Xrotation Yrotation Zrotation
			JOINT LeftLeg
			{
				OFFSET -0.021200 -31.938179 0.493100
				CHANNELS 3 Xrotation Yrotation Zrotation
				JOINT LeftFoot
				{
					OFFSET 0.021200 -31.938179 -4.336299
					CHANNELS 3 Xrotation Yrotation Zrotation
					JOINT LeftToeBase
					{
						OFFSET 0.943001 -26.722000 15.023500
						CHANNELS 3 Xrotation Yrotation Zrotation
						End Site
						{
							OFFSET 0 0 0
						}
					}
				}
			}
		}
	}
	JOINT RightUpLeg_virtual
	{
		OFFSET 0.000000 0.000000 0.000000
		CHANNELS 3 Xrotation Yrotation Zrotation
		JOINT RightUpLeg
		{
			OFFSET -18.735201 -5.666702 -4.541200
			CHANNELS 3 Xrotation Yrotation Zrotation
			JOINT RightLeg
			{
				OFFSET 0.018946 -31.938133 0.493100
				CHANNELS 3 Xrotation Yrotation Zrotation
				JOINT RightFoot
				{
					OFFSET -0.018946 -31.938126 -4.336299
					CHANNELS 3 Xrotation Yrotation Zrotation
					JOINT RightToeBase
					{
						OFFSET -0.943001 -26.722004 15.023500
						CHANNELS 3 Xrotation Yrotation Zrotation
						End Site
						{
							OFFSET 0 0 0
						}
					}
				}
			}
		}
	}
	JOINT Hips_virtual
	{
		OFFSET 0.000000 0.000000 0.000000
		CHANNELS 3 Xrotation Yrotation Zrotation
		JOINT Hips
		{
			OFFSET -0.000000 -0.000000 -0.000000
			CHANNELS 3 Xrotation Yrotation Zrotation
			JOINT Spine
			{
				OFFSET 0.000000 10.199997 -0.299500
				CHANNELS 3 Xrotation Yrotation Zrotation
				JOINT Spine1
				{
					OFFSET 0.000000 11.900002 -1.516600
					CHANNELS 3 Xrotation Yrotation Zrotation
					JOINT Spine2
					{
						OFFSET 0.000000 13.600006 -2.842500
						CHANNELS 3 Xrotation Yrotation Zrotation
						JOINT Neck_virtual
						{
							OFFSET 0.000000 0.000000 0.000000
							CHANNELS 3 Xrotation Yrotation Zrotation
							JOINT Neck
							{
								OFFSET 0.000000 9.624100 -2.890100
								CHANNELS 3 Xrotation Yrotation Zrotation
								JOINT Head
								{
									OFFSET 0.000000 14.068802 -1.351900
									CHANNELS 3 Xrotation Yrotation Zrotation
									End Site
									{
										OFFSET 0 0 0
									}
								}
							}
						}
						JOINT LeftShoulder_virtual
						{
							OFFSET 0.000000 0.000000 0.000000
							CHANNELS 3 Xrotation Yrotation Zrotation
							JOINT LeftShoulder
							{
								OFFSET 15.263000 10.923401 -0.547700
								CHANNELS 3 Xrotation Yrotation Zrotation
								JOINT LeftArm
								{
									OFFSET 25.438599 -2.830597 -13.032500
									CHANNELS 3 Xrotation Yrotation Zrotation
									JOINT LeftForeArm
									{
										OFFSET 29.960503 0.000000 0.000000
										CHANNELS 3 Xrotation Yrotation Zrotation
										JOINT LeftHand
										{
											OFFSET 27.849251 0.000000 0.000000
											CHANNELS 3 Xrotation Yrotation Zrotation
											End Site
											{
												OFFSET 0 0 0
											}
										}
									}
								}
							}
						}
						JOINT RightShoulder_virtual
						{
							OFFSET 0.000000 0.000000 0.000000
							CHANNELS 3 Xrotation Yrotation Zrotation
							JOINT RightShoulder
							{
								OFFSET -15.263000 10.923401 -0.547700
								CHANNELS 3 Xrotation Yrotation Zrotation
								JOINT RightArm
								{
									OFFSET -25.438599 -2.830597 -13.032500
									CHANNELS 3 Xrotation Yrotation Zrotation
									JOINT RightForeArm
									{
										OFFSET -29.960503 0.000000 0.000000
										CHANNELS 3 Xrotation Yrotation Zrotation
										JOINT RightHand
										{
											OFFSET -27.849251 0.000000 0.000000
											CHANNELS 3 Xrotation Yrotation Zrotation
											End Site
											{
												OFFSET 0 0 0
											}
										}
									}
								}
							}
						}
					}
				}
			}
		}
	}
}
MOTION
Frames: 4
Frame Time: 0.03333333
3.237673 11.735237 0.633789 0.000000 0.000000 0.000000 44.007974 -11.165022 2.783132 14.318003 16.140509 12.109796 70.044724 15.769933 -9.708789 8.284825 18.853064 -4.889973 0.000000 0.000000 0.000000 37.529738 2.070569 -0.611184 20.497280 -10.305652 -13.208476 66.252090 -14.051318 7.898760 6.756913 -19.445099 11.444223 0.000000 0.000000 0.000000 22.327376 7.131340 -0.608124 79.529070 3.631521 2.786002 7.181250 -0.108812 -0.238314 3.123316 0.338607 -0.450584 0.000000 0.000000 0.000000 -0.512808 -2.547098 1.166755 -2.200954 -2.455371 1.226672 0.000000 0.000000 0.000000 3.829902 -0.274021 -0.434266 0.956616 -13.182803 -3.098408 10.573728 -8.691902 -52.000358 7.773396 -35.703424 -2.239967 0.000000 0.000000 0.000000 2.292272 0.286647 0.734422 -1.222689 6.891508 7.805132 3.476794 0.051664 42.001145 3.470358 25.020477 3.722573 0.000000 0.000000 0.000000 
1.696734 10.801636 0.678276 0.000000 0.000000 0.000000 45.175062 -11.306075 3.563037 15.588203 16.314518 12.646756 71.022793 17.349546 -11.280705 7.026303 20.576706 -5.245784 0.000000 0.000000 0.000000 38.473339 1.387187 -0.393127 22.367724 -10.624359 -12.837828 65.183897 -16.073793 8.976853 5.033614 -21.776214 11.162874 0.000000 0.000000 0.000000 21.258045 7.970717 -1.668053 79.183906 4.178546 2.534512 5.657050 -0.564799 -0.765139 2.359348 0.284617 -0.360563 0.000000 0.000000 0.000000 -0.334720 -2.679820 1.162390 -2.117293 -2.567073 1.396207 0.000000 0.000000 0.000000 3.382619 -0.349602 -0.374033 1.387748 -13.274375 -3.041688 8.801463 -4.962036 -53.263007 7.179864 -33.373937 -2.510058 0.000000 0.000000 0.000000 1.989822 0.767124 0.524783 -1.133985 8.245419 7.701399 3.965654 0.384606 41.119624 3.092931 25.998529 3.978744 0.000000 0.000000 0.000000 
2.473807 11.541466 0.990406 0.000000 0.000000 0.000000 44.063289 -13.790730 3.625363 15.728360 15.085412 11.478102 69.809342 18.546279 -11.969007 5.562175 21.813391 -5.250305 0.000000 0.000000 0.000000 37.875445 0.372126 0.282403 22.903484 -10.665322 -12.092906 64.733535 -17.007654 9.906799 4.953809 -23.143609 11.748477 0.000000 0.000000 0.000000 21.934374 8.811312 -0.839796 79.795194 6.120330 6.656438 5.509677 -0.442362 -1.244198 1.376261 0.365483 -0.130759 0.000000 0.000000 0.000000 -0.676575 -2.907989 1.182344 -2.392230 -2.941105 1.389794 0.000000 0.000000 0.000000 3.665446 0.116627 0.080742 1.761488 -14.950295 -1.697982 6.235074 -3.806527 -53.699422 6.619807 -32.750948 -2.450050 0.000000 0.000000 0.000000 1.932221 1.205978 0.409640 -0.900999 8.862281 7.718967 1.103708 0.360026 41.904744 1.675753 22.331126 4.288198 0.000000 0.000000 0.000000 
1.119154 10.258858 -1.150410 0.000000 0.000000 0.000000 42.988070 -13.047690 4.400587 13.866531 15.186389 13.097041 68.138773 19.931773 -11.298860 3.567771 22.477985 -3.351642 0.000000 0.000000 0.000000 38.263775 -0.514011 0.282915 23.027300 -11.041064 -12.408409 65.238142 -17.194938 10.912886 4.954536 -23.660971 12.920819 0.000000 0.000000 0.000000 22.482281 9.156757 -1.395579 81.843268 6.601901 6.555749 3.720765 -0.965610 -0.472618 1.139813 0.518230 -0.366529 0.000000 0.000000 0.000000 -0.489711 -3.181297 1.385845 -2.236064 -3.093065 1.517770 0.000000 0.000000 0.000000 4.608548 -0.051053 0.274051 2.364796 -14.101909 -0.123997 5.044717 -3.753915 -54.709463 5.752315 -33.004106 -3.066196 0.000000 0.000000 0.000000 2.419057 1.502564 -0.000850 -0.713186 9.405664 7.141556 1.329081 1.168141 41.304107 2.275886 25.376878 4.021086 0.000000 0.000000 0.000000 
